<?xml version="1.0" standalone="no"?><!DOCTYPE svg PUBLIC "-//W3C//DTD SVG 1.1//EN"
        "http://www.w3.org/Graphics/SVG/1.1/DTD/svg11.dtd">
<svg height="800" node-id="1" sillyvg="true" template-height="800" template-width="800" version="1.1"
     viewBox="0 0 800 800" width="800" xmlns="http://www.w3.org/2000/svg" xmlns:xlink="http://www.w3.org/1999/xlink">
    <defs node-id="184">
        <linearGradient gradientUnits="userSpaceOnUse" id="SVGID_1_" node-id="18" spreadMethod="pad" x1="257.8387"
                        x2="257.8387" y1="422.442" y2="325.6537">
            <stop offset="0.0000005358273" stop-color="#ffffff"></stop>
            <stop offset="1" stop-color="#dbe3ee"></stop>
        </linearGradient>
        <linearGradient gradientUnits="userSpaceOnUse" id="SVGID_2_" node-id="22" spreadMethod="pad" x1="193.2217"
                        x2="193.2217" y1="480.4338" y2="263.9448">
            <stop offset="0.0000005358273" stop-color="#ffffff"></stop>
            <stop offset="1" stop-color="#dbe3ee"></stop>
        </linearGradient>
        <linearGradient gradientUnits="userSpaceOnUse" id="SVGID_3_" node-id="26" spreadMethod="pad" x1="569.0033"
                        x2="569.0033" y1="437.755" y2="281.2742">
            <stop offset="0.0000005358273" stop-color="#ffffff"></stop>
            <stop offset="1" stop-color="#dbe3ee"></stop>
        </linearGradient>
        <linearGradient gradientUnits="userSpaceOnUse" id="SVGID_4_" node-id="30" spreadMethod="pad" x1="631.5281"
                        x2="631.5281" y1="460.425" y2="290.6843">
            <stop offset="0.0000005358273" stop-color="#ffffff"></stop>
            <stop offset="1" stop-color="#dbe3ee"></stop>
        </linearGradient>
        <linearGradient gradientUnits="userSpaceOnUse" id="SVGID_5_" node-id="34" spreadMethod="pad" x1="122.8156"
                        x2="122.8156" y1="502.5035" y2="351.9901">
            <stop offset="0.0000005358273" stop-color="#ffffff"></stop>
            <stop offset="1" stop-color="#edf1f9"></stop>
        </linearGradient>
        <linearGradient gradientUnits="userSpaceOnUse" id="SVGID_6_" node-id="38" spreadMethod="pad" x1="685.4888"
                        x2="685.4888" y1="485.8981" y2="362.7658">
            <stop offset="0.0000005358273" stop-color="#ffffff"></stop>
            <stop offset="1" stop-color="#edf1f9"></stop>
        </linearGradient>
        <linearGradient gradientUnits="userSpaceOnUse" id="SVGID_7_" node-id="42" spreadMethod="pad" x1="128.7792"
                        x2="128.7792" y1="230.1962" y2="165.6549">
            <stop offset="0.2332" stop-color="#ffffff"></stop>
            <stop offset="1" stop-color="#d3dfee"></stop>
        </linearGradient>
        <linearGradient gradientUnits="userSpaceOnUse" id="SVGID_8_" node-id="46" spreadMethod="pad" x1="645.8477"
                        x2="645.8477" y1="193.3758" y2="128.8345">
            <stop offset="0.2332" stop-color="#ffffff"></stop>
            <stop offset="1" stop-color="#d3dfee"></stop>
        </linearGradient>
        <linearGradient gradientUnits="userSpaceOnUse" id="SVGID_9_" node-id="50" spreadMethod="pad" x1="547.8824"
                        x2="547.8824" y1="244.6428" y2="197.9256">
            <stop offset="0.2332" stop-color="#ffffff"></stop>
            <stop offset="1" stop-color="#d3dfee"></stop>
        </linearGradient>
        <linearGradient gradientUnits="userSpaceOnUse" id="SVGID_10_" node-id="54" spreadMethod="pad" x1="402.2941"
                        x2="402.2941" y1="752.074" y2="399.9452">
            <stop offset="0.4065" stop-color="#ffffff"></stop>
            <stop offset="1" stop-color="#dae4ef"></stop>
        </linearGradient>
        <linearGradient gradientUnits="userSpaceOnUse" id="SVGID_11_" node-id="60" spreadMethod="pad" x1="193.2236"
                        x2="141.7874" y1="575.5298" y2="514.2305">
            <stop offset="0.4034" stop-color="#eff4f8"></stop>
            <stop offset="1" stop-color="#d4dfec"></stop>
        </linearGradient>
        <linearGradient gradientUnits="userSpaceOnUse" id="SVGID_12_" node-id="64" spreadMethod="pad" x1="114.1758"
                        x2="178.3626" y1="455.2395" y2="455.2395">
            <stop offset="0.1022" stop-color="#f0f5f8"></stop>
            <stop offset="1" stop-color="#b4c7dc"></stop>
        </linearGradient>
        <linearGradient gradientUnits="userSpaceOnUse" id="SVGID_13_" node-id="70" spreadMethod="pad" x1="712.0857"
                        x2="664.7203" y1="555.5573" y2="499.1094">
            <stop offset="0.4034" stop-color="#eff4f8"></stop>
            <stop offset="1" stop-color="#d4dfec"></stop>
        </linearGradient>
        <linearGradient gradientUnits="userSpaceOnUse" id="SVGID_14_" node-id="74" spreadMethod="pad" x1="639.2939"
                        x2="698.4009" y1="444.787" y2="444.787">
            <stop offset="0.1022" stop-color="#f0f5f8"></stop>
            <stop offset="1" stop-color="#b4c7dc"></stop>
        </linearGradient>
        <linearGradient gradientUnits="userSpaceOnUse" id="SVGID_15_" node-id="80" spreadMethod="pad" x1="253.4231"
                        x2="227.9818" y1="456.3865" y2="426.0668">
            <stop offset="0.0000001438503" stop-color="#eaeff6"></stop>
            <stop offset="1" stop-color="#cddae9"></stop>
        </linearGradient>
        <linearGradient gradientUnits="userSpaceOnUse" id="SVGID_16_" node-id="84" spreadMethod="pad" x1="214.3246"
                        x2="246.0726" y1="396.8888" y2="396.8888">
            <stop offset="0.1022" stop-color="#f0f5f8"></stop>
            <stop offset="1" stop-color="#b4c7dc"></stop>
        </linearGradient>
        <linearGradient gradientUnits="userSpaceOnUse" id="SVGID_17_" node-id="90" spreadMethod="pad" x1="299.2637"
                        x2="569.9445" y1="331.1527" y2="331.1527">
            <stop offset="0" stop-color="#eff3f9"></stop>
            <stop offset="1" stop-color="#b6c9de"></stop>
        </linearGradient>
        <linearGradient gradientUnits="userSpaceOnUse" id="SVGID_18_" node-id="94" spreadMethod="pad" x1="390.2495"
                        x2="390.2495" y1="326.6594" y2="522.4277">
            <stop offset="0" stop-color="#f4f7fa"></stop>
            <stop offset="1" stop-color="#f1f4f9"></stop>
        </linearGradient>
        <linearGradient gradientUnits="userSpaceOnUse" id="SVGID_19_" node-id="98" spreadMethod="pad" x1="378.0013"
                        x2="483.7292" y1="343.5436" y2="343.5436">
            <stop offset="0" stop-color="#ffffff"></stop>
            <stop offset="1" stop-color="#e3e9f3"></stop>
        </linearGradient>
        <linearGradient gradientUnits="userSpaceOnUse" id="SVGID_20_" node-id="106" spreadMethod="pad" x1="463.3818"
                        x2="486.1052" y1="210.6404" y2="210.6404">
            <stop offset="0" stop-color="#eff3f9"></stop>
            <stop offset="1" stop-color="#b6c9de"></stop>
        </linearGradient>
        <linearGradient gradientUnits="userSpaceOnUse" id="SVGID_21_" node-id="110" spreadMethod="pad" x1="537.2941"
                        x2="476.9906" y1="692.0218" y2="481.7184">
            <stop offset="0.2334" stop-color="#ffffff"></stop>
            <stop offset="1" stop-color="#bbcbe0"></stop>
        </linearGradient>
        <linearGradient gradientUnits="userSpaceOnUse" id="SVGID_22_" node-id="114" spreadMethod="pad" x1="386.8026"
                        x2="527.96" y1="250.0846" y2="250.0846">
            <stop offset="0" stop-color="#eff3f9"></stop>
            <stop offset="1" stop-color="#b6c9de"></stop>
        </linearGradient>
        <linearGradient gradientUnits="userSpaceOnUse" id="SVGID_23_" node-id="118" spreadMethod="pad" x1="469.6156"
                        x2="497.9045" y1="191.6882" y2="191.6882">
            <stop offset="0" stop-color="#eff3f9"></stop>
            <stop offset="1" stop-color="#b6c9de"></stop>
        </linearGradient>
        <linearGradient gradientUnits="userSpaceOnUse" id="SVGID_24_" node-id="123" spreadMethod="pad" x1="328.5219"
                        x2="328.5219" y1="457.439" y2="528.6038">
            <stop offset="0" stop-color="#dde5f0"></stop>
            <stop offset="1" stop-color="#9fb7ce"></stop>
        </linearGradient>
        <linearGradient gradientUnits="userSpaceOnUse" id="SVGID_25_" node-id="128" spreadMethod="pad" x1="454.0164"
                        x2="454.0164" y1="457.4391" y2="528.6037">
            <stop offset="0" stop-color="#dde5f0"></stop>
            <stop offset="1" stop-color="#9fb7ce"></stop>
        </linearGradient>
        <linearGradient gradientUnits="userSpaceOnUse" id="SVGID_26_" node-id="133" spreadMethod="pad" x1="390.2495"
                        x2="390.2495" y1="455.9131" y2="530.1297">
            <stop offset="0" stop-color="#dde5f0"></stop>
            <stop offset="1" stop-color="#9fb7ce"></stop>
        </linearGradient>
        <linearGradient gradientUnits="userSpaceOnUse" id="SVGID_27_" node-id="145" spreadMethod="pad" x1="573.9847"
                        x2="550.0026" y1="563.3937" y2="497.5033">
            <stop offset="0" stop-color="#78c8ff"></stop>
            <stop offset="0.6903" stop-color="#2a80e2"></stop>
        </linearGradient>
        <linearGradient gradientUnits="userSpaceOnUse" id="SVGID_28_" node-id="150" spreadMethod="pad" x1="-2309.6587"
                        x2="-2309.6587" y1="504.8681" y2="456.3331">
            <stop offset="0" stop-color="#f2a319"></stop>
            <stop offset="0.4796" stop-color="#ffc552"></stop>
        </linearGradient>
    </defs>
    <g node-id="481">
        <path d="M 272.30 329.06 L 272.30 325.65 L 242.80 325.65 L 242.80 329.61 L 236.32 329.61 L 236.32 422.44 L 279.37 422.44 L 279.37 329.06 L 272.30 329.06 Z M 275.64 411.80 L 239.60 411.80 L 239.60 409.05 L 275.64 409.05 L 275.64 411.80 Z M 275.64 399.12 L 239.60 399.12 L 239.60 396.37 L 275.64 396.37 L 275.64 399.12 Z M 275.64 386.44 L 239.60 386.44 L 239.60 383.69 L 275.64 383.69 L 275.64 386.44 Z M 275.64 374.10 L 239.60 374.10 L 239.60 371.35 L 275.64 371.35 L 275.64 374.10 Z M 275.64 361.79 L 239.60 361.79 L 239.60 359.04 L 275.64 359.04 L 275.64 361.79 Z M 275.64 349.11 L 239.60 349.11 L 239.60 346.36 L 275.64 346.36 L 275.64 349.11 Z M 275.64 336.77 L 239.60 336.77 L 239.60 334.02 L 275.64 334.02 L 275.64 336.77 Z"
              fill="url(#SVGID_1_)" fill-rule="nonzero" group-id="1" node-id="357" stroke="none"
              target-height="96.79001" target-width="43.049988" target-x="236.32" target-y="325.65"></path>
        <path d="M 214.31 380.87 L 214.31 272.69 L 181.56 272.69 L 181.56 263.95 L 167.70 263.95 L 167.70 317.28 L 163.97 317.28 L 163.97 480.44 L 222.48 480.44 L 222.48 380.88 L 214.31 380.88 Z M 189.82 412.68 L 181.56 412.68 L 181.56 404.67 L 189.82 404.67 L 189.82 412.68 Z M 189.82 400.15 L 181.56 400.15 L 181.56 392.14 L 189.82 392.14 L 189.82 400.15 Z M 189.82 387.68 L 181.56 387.68 L 181.56 379.67 L 189.82 379.67 L 189.82 387.68 Z M 189.82 375.24 L 181.56 375.24 L 181.56 367.23 L 189.82 367.23 L 189.82 375.24 Z M 189.82 362.71 L 181.56 362.71 L 181.56 354.70 L 189.82 354.70 L 189.82 362.71 Z M 189.82 337.71 L 181.56 337.71 L 181.56 329.70 L 189.82 329.70 L 189.82 337.71 Z M 189.82 325.18 L 181.56 325.18 L 181.56 317.17 L 189.82 317.17 L 189.82 325.18 Z M 189.82 312.70 L 181.56 312.70 L 181.56 304.69 L 189.82 304.69 L 189.82 312.70 Z M 189.82 300.27 L 181.56 300.27 L 181.56 292.26 L 189.82 292.26 L 189.82 300.27 Z M 189.82 287.73 L 181.56 287.73 L 181.56 279.72 L 189.82 279.72 L 189.82 287.73 Z M 202.17 412.68 L 193.91 412.68 L 193.91 404.67 L 202.17 404.67 L 202.17 412.68 Z M 202.17 400.15 L 193.91 400.15 L 193.91 392.14 L 202.17 392.14 L 202.17 400.15 Z M 202.17 387.68 L 193.91 387.68 L 193.91 379.67 L 202.17 379.67 L 202.17 387.68 Z M 202.17 375.24 L 193.91 375.24 L 193.91 367.23 L 202.17 367.23 L 202.17 375.24 Z M 202.17 362.71 L 193.91 362.71 L 193.91 354.70 L 202.17 354.70 L 202.17 362.71 Z M 202.17 337.71 L 193.91 337.71 L 193.91 329.70 L 202.17 329.70 L 202.17 337.71 Z M 202.17 325.18 L 193.91 325.18 L 193.91 317.17 L 202.17 317.17 L 202.17 325.18 Z M 202.17 312.70 L 193.91 312.70 L 193.91 304.69 L 202.17 304.69 L 202.17 312.70 Z M 202.17 300.27 L 193.91 300.27 L 193.91 292.26 L 202.17 292.26 L 202.17 300.27 Z M 202.17 287.73 L 193.91 287.73 L 193.91 279.72 L 202.17 279.72 L 202.17 287.73 Z"
              fill="url(#SVGID_2_)" fill-rule="nonzero" group-id="1" node-id="359" stroke="none"
              target-height="216.48999" target-width="58.509995" target-x="163.97" target-y="263.95"></path>
        <path d="M 536.62 437.75 C 536.98 433.10 536.62 281.27 536.62 281.27 L 555.15 281.27 L 555.15 314.98 L 584.65 314.98 L 584.65 385.43 L 601.38 385.43 L 601.38 437.75 L 536.62 437.75 Z"
              fill="url(#SVGID_3_)" fill-rule="nonzero" group-id="1" node-id="361" stroke="none"
              target-height="156.48001" target-width="64.76001" target-x="536.62" target-y="281.27"></path>
        <path d="M 657.84 369.61 L 657.84 364.76 L 652.84 364.76 L 652.84 322.43 L 640.64 322.43 L 640.64 317.73 L 632.41 317.73 L 632.41 310.82 L 628.12 310.82 L 628.12 290.68 L 625.03 290.68 L 625.03 310.96 L 621.09 310.96 L 621.09 317.87 L 608.89 317.87 L 608.89 329.19 L 601.84 329.19 L 601.84 460.42 L 661.22 460.42 L 661.22 369.60 L 657.84 369.60 Z M 612.32 422.39 L 608.30 422.39 L 608.30 407.15 L 612.32 407.15 L 612.32 422.39 Z M 612.32 403.74 L 608.30 403.74 L 608.30 388.50 L 612.32 388.50 L 612.32 403.74 Z M 612.32 385.09 L 608.30 385.09 L 608.30 369.85 L 612.32 369.85 L 612.32 385.09 Z M 612.32 366.11 L 608.30 366.11 L 608.30 350.87 L 612.32 350.87 L 612.32 366.11 Z M 612.32 347.12 L 608.30 347.12 L 608.30 331.88 L 612.32 331.88 L 612.32 347.12 Z M 620.60 422.39 L 616.58 422.39 L 616.58 407.15 L 620.60 407.15 L 620.60 422.39 Z M 620.60 403.74 L 616.58 403.74 L 616.58 388.50 L 620.60 388.50 L 620.60 403.74 Z M 620.60 385.09 L 616.58 385.09 L 616.58 369.85 L 620.60 369.85 L 620.60 385.09 Z M 620.60 366.11 L 616.58 366.11 L 616.58 350.87 L 620.60 350.87 L 620.60 366.11 Z M 620.60 347.12 L 616.58 347.12 L 616.58 331.88 L 620.60 331.88 L 620.60 347.12 Z M 628.88 422.39 L 624.86 422.39 L 624.86 407.15 L 628.88 407.15 L 628.88 422.39 Z M 628.88 403.74 L 624.86 403.74 L 624.86 388.50 L 628.88 388.50 L 628.88 403.74 Z M 628.88 385.09 L 624.86 385.09 L 624.86 369.85 L 628.88 369.85 L 628.88 385.09 Z M 628.88 366.11 L 624.86 366.11 L 624.86 350.87 L 628.88 350.87 L 628.88 366.11 Z M 628.88 347.12 L 624.86 347.12 L 624.86 331.88 L 628.88 331.88 L 628.88 347.12 Z M 637.16 422.39 L 633.14 422.39 L 633.14 407.15 L 637.16 407.15 L 637.16 422.39 Z M 637.16 403.74 L 633.14 403.74 L 633.14 388.50 L 637.16 388.50 L 637.16 403.74 Z M 637.16 385.09 L 633.14 385.09 L 633.14 369.85 L 637.16 369.85 L 637.16 385.09 Z M 637.16 366.11 L 633.14 366.11 L 633.14 350.87 L 637.16 350.87 L 637.16 366.11 Z M 637.16 347.12 L 633.14 347.12 L 633.14 331.88 L 637.16 331.88 L 637.16 347.12 Z M 645.44 422.39 L 641.42 422.39 L 641.42 407.15 L 645.44 407.15 L 645.44 422.39 Z M 645.44 403.74 L 641.42 403.74 L 641.42 388.50 L 645.44 388.50 L 645.44 403.74 Z M 645.44 385.09 L 641.42 385.09 L 641.42 369.85 L 645.44 369.85 L 645.44 385.09 Z M 645.44 366.11 L 641.42 366.11 L 641.42 350.87 L 645.44 350.87 L 645.44 366.11 Z M 645.44 347.12 L 641.42 347.12 L 641.42 331.88 L 645.44 331.88 L 645.44 347.12 Z"
              fill="url(#SVGID_4_)" fill-rule="nonzero" group-id="1" node-id="363" stroke="none"
              target-height="169.74002" target-width="59.379944" target-x="601.84" target-y="290.68"></path>
        <path d="M 96.19 502.50 L 96.19 412.96 L 106.44 412.96 L 106.44 367.26 L 141.71 351.99 L 141.71 412.24 L 149.44 412.24 L 149.44 502.50 Z"
              fill="url(#SVGID_5_)" fill-rule="nonzero" group-id="1" node-id="365" stroke="none"
              target-height="150.51001" target-width="53.25" target-x="96.19" target-y="351.99"></path>
        <path d="M 700.96 485.90 L 670.02 485.90 L 670.02 362.77 L 700.96 377.74 Z" fill="url(#SVGID_6_)"
              fill-rule="nonzero" group-id="1" node-id="367" stroke="none" target-height="123.130005"
              target-width="30.940002" target-x="670.02" target-y="362.77"></path>
        <path d="M 91.01 189.09 C 91.01 189.09 100.35 163.61 123.31 173.61 C 128.61 168.23 135.17 164.32 144.04 166.08 C 152.91 167.85 158.63 174.49 160.57 178.91 C 163.35 178.78 185.61 179.52 185.61 202.61 C 185.61 225.70 158.67 225.26 156.72 223.43 C 154.32 225.57 142.78 237.18 128.78 223.93 C 125.75 226.52 115.85 237.49 100.20 222.35 C 92.95 225.38 75.72 227.71 72.38 209.92 C 69.04 192.13 86.17 187.11 91.01 189.09 Z"
              fill="url(#SVGID_7_)" fill-rule="nonzero" group-id="1" node-id="369" stroke="none"
              target-height="73.880005" target-width="116.57" target-x="69.04" target-y="163.61"></path>
        <path d="M 608.08 152.27 C 608.08 152.27 617.42 126.79 640.38 136.79 C 645.68 131.41 652.24 127.50 661.11 129.26 C 669.98 131.03 675.70 137.67 677.64 142.09 C 680.42 141.96 702.68 142.70 702.68 165.79 C 702.68 188.88 675.74 188.44 673.79 186.61 C 671.39 188.75 659.85 200.36 645.85 187.11 C 642.82 189.70 632.92 200.67 617.27 185.53 C 610.02 188.56 592.79 190.89 589.45 173.10 C 586.10 155.32 603.24 150.29 608.08 152.27 Z"
              fill="url(#SVGID_8_)" fill-rule="nonzero" group-id="1" node-id="371" stroke="none" target-height="73.88"
              target-width="116.58002" target-x="586.1" target-y="126.79"></path>
        <path d="M 520.54 214.89 C 520.54 214.89 527.30 196.44 543.92 203.69 C 547.76 199.79 552.50 196.96 558.93 198.24 C 565.35 199.52 569.49 204.33 570.89 207.52 C 572.90 207.43 589.02 207.96 589.02 224.67 C 589.02 241.38 569.52 241.06 568.11 239.74 C 566.37 241.29 558.02 249.69 547.88 240.11 C 545.69 241.98 538.52 249.93 527.20 238.97 C 521.95 241.16 509.48 242.85 507.06 229.97 C 504.64 217.09 517.04 213.46 520.54 214.89 Z"
              fill="url(#SVGID_9_)" fill-rule="nonzero" group-id="1" node-id="373" stroke="none"
              target-height="53.48999" target-width="84.380005" target-x="504.64" target-y="196.44"></path>
        <path d="M 773.27 576.01 C 773.27 622.70 734.18 667.49 664.61 700.50 C 595.04 733.52 500.68 752.07 402.29 752.07 C 303.90 752.07 209.54 733.52 139.97 700.50 C 70.40 667.49 31.31 622.70 31.31 576.01 C 31.31 529.32 70.40 484.53 139.97 451.52 C 209.54 418.50 303.90 399.95 402.29 399.95 C 500.68 399.95 595.04 418.50 664.61 451.52 C 734.18 484.53 773.27 529.32 773.27 576.01 Z"
              fill="url(#SVGID_10_)" fill-rule="nonzero" group-id="1" node-id="375" stroke="none" target-height="352.12"
              target-width="741.96" target-x="31.31" target-y="399.95"></path>
    </g>
    <g node-id="482">
        <g node-id="485">
            <path d="M 148.24 554.48 C 148.24 554.48 144.71 559.49 150.61 566.95 C 155.87 573.59 164.18 572.30 166.94 570.17 C 167.79 575.95 174.88 588.13 186.10 581.24 C 196.65 574.77 191.57 564.93 188.20 561.06 C 194.79 559.20 199.70 543.41 184.58 537.96 C 186.82 531.44 187.22 528.49 183.94 522.63 C 180.78 516.99 175.59 516.09 167.31 519.52 L 155.33 524.57 L 147.70 510.33 L 143.62 512.69 L 152.42 526.29 L 140.76 532.14 C 140.76 532.14 130.79 536.04 135.09 546.74 C 139.08 556.65 148.24 554.48 148.24 554.48 Z"
                  fill="url(#SVGID_11_)" fill-rule="nonzero" group-id="2,5" node-id="381" stroke="none"
                  target-height="77.80002" target-width="68.91" target-x="130.79" target-y="510.33"></path>
            <path d="M 127.94 493.76 L 164.00 493.76 C 164.00 493.76 175.65 494.09 177.97 480.78 C 180.52 466.17 169.89 464.16 169.89 464.16 C 169.89 464.16 176.29 461.22 174.90 450.17 C 173.50 439.13 163.78 437.73 159.73 438.24 C 160.39 431.69 161.77 416.86 146.37 416.71 C 131.50 416.56 131.59 431.53 132.70 437.43 C 127.40 437.49 111.39 445.44 122.65 462.88 C 116.52 468.13 113.93 471.16 114.20 478.73 C 114.47 486.31 119.11 493.76 127.94 493.76 Z"
                  fill="url(#SVGID_12_)" fill-rule="nonzero" group-id="2,5" node-id="383" stroke="none"
                  target-height="77.53" target-width="69.130005" target-x="111.39" target-y="416.56"></path>
            <path d="M 163.12 473.52 L 147.74 483.65 L 147.32 473.86 L 157.04 462.40 L 147.17 470.38 L 145.89 440.48 L 144.95 470.58 L 134.57 462.32 L 144.85 473.64 L 144.53 483.71 L 128.72 472.09 L 144.42 487.35 L 143.63 512.70 L 148.98 512.70 L 147.90 487.50 Z"
                  fill="#c6d5e6" fill-rule="nonzero" group-id="2,5" node-id="385" stroke="none" target-height="72.22"
                  target-width="34.399994" target-x="128.72" target-y="440.48"></path>
        </g>
        <g node-id="486">
            <path d="M 670.66 536.17 C 670.66 536.17 667.41 540.79 672.84 547.65 C 677.68 553.77 685.34 552.58 687.88 550.61 C 688.66 555.93 695.20 567.14 705.53 560.81 C 715.24 554.85 710.57 545.79 707.46 542.23 C 713.53 540.52 718.05 525.97 704.13 520.96 C 706.20 514.96 706.57 512.24 703.54 506.85 C 700.63 501.66 695.85 500.82 688.23 503.99 L 677.19 508.64 L 670.16 495.53 L 666.41 497.70 L 674.51 510.22 L 663.78 515.61 C 663.78 515.61 654.60 519.20 658.56 529.06 C 662.23 538.18 670.66 536.17 670.66 536.17 Z"
                  fill="url(#SVGID_13_)" fill-rule="nonzero" group-id="2,6" node-id="390" stroke="none"
                  target-height="71.610016" target-width="63.450012" target-x="654.6" target-y="495.53"></path>
            <path d="M 651.97 480.26 L 685.17 480.26 C 685.17 480.26 695.90 480.57 698.03 468.31 C 700.37 454.86 690.59 453.01 690.59 453.01 C 690.59 453.01 696.49 450.30 695.20 440.13 C 693.91 429.96 684.96 428.67 681.23 429.15 C 681.84 423.12 683.11 409.46 668.93 409.32 C 655.24 409.18 655.32 422.96 656.34 428.40 C 651.46 428.45 636.71 435.77 647.09 451.84 C 641.45 456.67 639.06 459.47 639.31 466.43 C 639.57 473.40 643.84 480.26 651.97 480.26 Z"
                  fill="url(#SVGID_14_)" fill-rule="nonzero" group-id="2,6" node-id="392" stroke="none"
                  target-height="71.390015" target-width="63.659973" target-x="636.71" target-y="409.18"></path>
            <path d="M 684.36 461.63 L 670.20 470.94 L 669.81 461.93 L 678.77 451.38 L 669.68 458.73 L 668.50 431.19 L 667.63 458.91 L 658.07 451.30 L 667.54 461.73 L 667.25 471.01 L 652.68 460.30 L 667.14 474.35 L 666.41 497.70 L 671.34 497.70 L 670.35 474.49 Z"
                  fill="#c6d5e6" fill-rule="nonzero" group-id="2,6" node-id="394" stroke="none" target-height="66.51001"
                  target-width="31.679993" target-x="652.68" target-y="431.19"></path>
        </g>
        <g node-id="487">
            <path d="M 231.17 445.97 C 231.17 445.97 229.42 448.45 232.34 452.14 C 234.94 455.43 239.05 454.79 240.42 453.73 C 240.84 456.59 244.35 462.61 249.90 459.21 C 255.12 456.01 252.61 451.14 250.94 449.23 C 254.20 448.31 256.63 440.50 249.15 437.81 C 250.26 434.59 250.46 433.13 248.83 430.23 C 247.27 427.44 244.70 426.99 240.61 428.69 L 234.68 431.19 L 230.91 424.15 L 228.89 425.32 L 233.24 432.04 L 227.47 434.93 C 227.47 434.93 222.54 436.86 224.67 442.15 C 226.64 447.05 231.17 445.97 231.17 445.97 Z"
                  fill="url(#SVGID_15_)" fill-rule="nonzero" group-id="2,7" node-id="399" stroke="none"
                  target-height="38.45999" target-width="34.09001" target-x="222.54" target-y="424.15"></path>
            <path d="M 221.13 415.94 L 238.96 415.94 C 238.96 415.94 244.72 416.10 245.87 409.52 C 247.13 402.29 241.87 401.30 241.87 401.30 C 241.87 401.30 245.04 399.84 244.35 394.38 C 243.66 388.92 238.85 388.23 236.85 388.48 C 237.18 385.24 237.86 377.90 230.24 377.83 C 222.88 377.76 222.93 385.16 223.48 388.08 C 220.86 388.11 212.94 392.04 218.51 400.67 C 215.48 403.26 214.19 404.77 214.33 408.51 C 214.47 412.26 216.77 415.94 221.13 415.94 Z"
                  fill="url(#SVGID_16_)" fill-rule="nonzero" group-id="2,7" node-id="401" stroke="none"
                  target-height="38.339996" target-width="34.190002" target-x="212.94" target-y="377.76"></path>
            <path d="M 238.53 405.93 L 230.92 410.94 L 230.72 406.10 L 235.53 400.43 L 230.64 404.38 L 230.01 389.59 L 229.54 404.47 L 224.41 400.39 L 229.50 405.99 L 229.34 410.97 L 221.52 405.22 L 229.28 412.77 L 228.89 425.31 L 231.54 425.31 L 231.01 412.84 Z"
                  fill="#c6d5e6" fill-rule="nonzero" group-id="2,7" node-id="403" stroke="none" target-height="35.72"
                  target-width="17.009995" target-x="221.52" target-y="389.59"></path>
        </g>
    </g>
    <g node-id="483">
        <path d="M 567.83 371.35 C 554.74 414.74 484.47 431.93 410.90 409.72 C 337.32 387.52 288.29 334.34 301.38 290.95 C 314.47 247.56 384.74 230.37 458.31 252.58 C 531.88 274.79 580.92 327.96 567.83 371.35 Z"
              fill="url(#SVGID_17_)" fill-rule="nonzero" group-id="3" node-id="409" stroke="none" target-height="201.56"
              target-width="292.62997" target-x="288.29" target-y="230.37"></path>
        <path d="M 269.29 462.61 L 379.33 326.65 L 482.87 359.23 L 511.21 503.22 C 511.21 503.22 454.02 533.22 373.53 518.23 C 305.86 505.63 269.29 462.61 269.29 462.61 Z"
              fill="url(#SVGID_18_)" fill-rule="nonzero" group-id="3" node-id="411" stroke="none"
              target-height="206.56998" target-width="241.91998" target-x="269.29" target-y="326.65"></path>
        <path d="M 482.87 359.23 C 477.65 376.54 450.13 383.55 421.41 374.89 C 392.69 366.22 373.64 345.16 378.87 327.85 C 384.10 310.54 411.61 303.53 440.33 312.19 C 469.05 320.85 488.09 341.92 482.87 359.23 Z"
              fill="url(#SVGID_19_)" fill-rule="nonzero" group-id="3" node-id="413" stroke="none"
              target-height="80.01999" target-width="114.44998" target-x="373.64" target-y="303.53"></path>
        <g node-id="488">
            <path d="M 427.08 272.00 L 429.71 272.52 L 432.05 273.24 L 434.14 274.17 L 436.10 275.35 L 437.65 276.61 L 438.85 277.97 L 439.75 279.50 L 440.19 281.03 L 440.21 282.59 L 439.77 284.09 L 438.94 285.44 L 437.66 286.68 L 436.14 287.66 L 434.31 288.46 L 432.11 289.07 L 429.84 289.40 L 427.39 289.47 L 424.72 289.26 L 422.10 288.75 L 419.76 288.02 L 417.66 287.10 L 415.71 285.92 L 414.16 284.65 L 412.96 283.30 L 412.06 281.77 L 411.62 280.24 L 411.60 278.68 L 412.04 277.18 L 412.87 275.83 L 414.15 274.59 L 415.67 273.61 L 417.50 272.80 L 419.70 272.19 L 421.97 271.86 L 424.42 271.79 L 427.08 272.00 Z"
                  fill="#ffffff" fill-rule="nonzero" group-id="3,8" node-id="417" stroke="none"
                  target-height="17.682526" target-width="28.614258" target-x="411.59753" target-y="271.79236"></path>
        </g>
        <g node-id="489">
            <path d="M 386.56 281.45 L 386.58 283.02 L 386.18 284.55 L 385.31 286.11 L 384.15 287.49 L 382.62 288.79 L 380.70 290.01 L 378.63 290.99 L 376.30 291.77 L 373.69 292.34 L 371.03 292.62 L 368.57 292.60 L 366.30 292.32 L 364.09 291.77 L 362.24 291.01 L 360.69 290.06 L 359.39 288.85 L 358.52 287.52 L 358.05 286.03 L 358.03 284.47 L 358.44 282.94 L 359.30 281.38 L 360.47 280.00 L 361.99 278.70 L 363.92 277.47 L 365.99 276.50 L 368.31 275.72 L 370.93 275.14 L 373.59 274.87 L 376.04 274.88 L 378.31 275.16 L 380.52 275.72 L 382.38 276.48 L 383.92 277.43 L 385.23 278.63 L 386.09 279.96 L 386.56 281.45 Z"
                  fill="#ffffff" fill-rule="nonzero" group-id="3,9" node-id="422" stroke="none"
                  target-height="17.746033" target-width="28.544556" target-x="358.03436" target-y="274.87036"></path>
        </g>
        <g node-id="490">
            <path d="M 478.17 287.79 L 480.48 289.13 L 482.46 290.58 L 484.13 292.14 L 485.60 293.89 L 486.65 295.59 L 487.35 297.26 L 487.70 299.01 L 487.61 300.59 L 487.12 302.08 L 486.22 303.35 L 484.99 304.36 L 483.38 305.11 L 481.62 305.54 L 479.63 305.70 L 477.35 305.56 L 475.10 305.13 L 472.76 304.40 L 470.31 303.33 L 467.99 301.99 L 466.01 300.54 L 464.34 298.98 L 462.87 297.23 L 461.82 295.52 L 461.13 293.85 L 460.78 292.11 L 460.86 290.52 L 461.35 289.04 L 462.26 287.77 L 463.48 286.76 L 465.10 286.01 L 466.85 285.58 L 468.85 285.42 L 471.13 285.56 L 473.38 285.98 L 475.72 286.72 L 478.17 287.79 Z"
                  fill="#ffffff" fill-rule="nonzero" group-id="3,10" node-id="427" stroke="none"
                  target-height="20.28537" target-width="26.916504" target-x="460.77853" target-y="285.41623"></path>
        </g>
        <g node-id="491">
            <path d="M 519.37 323.79 L 521.15 325.78 L 522.58 327.78 L 523.69 329.78 L 524.53 331.90 L 525.00 333.85 L 525.14 335.65 L 524.93 337.42 L 524.35 338.90 L 523.43 340.16 L 522.17 341.08 L 520.69 341.66 L 518.92 341.87 L 517.12 341.73 L 515.17 341.26 L 513.05 340.42 L 511.05 339.31 L 509.05 337.88 L 507.06 336.10 L 505.28 334.11 L 503.85 332.11 L 502.74 330.11 L 501.90 327.99 L 501.43 326.04 L 501.29 324.24 L 501.50 322.47 L 502.08 320.99 L 503.00 319.73 L 504.26 318.81 L 505.74 318.23 L 507.51 318.02 L 509.31 318.16 L 511.26 318.63 L 513.38 319.47 L 515.38 320.58 L 517.38 322.00 L 519.37 323.79 Z"
                  fill="#ffffff" fill-rule="nonzero" group-id="3,11" node-id="432" stroke="none"
                  target-height="23.849976" target-width="23.849884" target-x="501.28995" target-y="318.0196"></path>
        </g>
        <path d="M 463.38 217.91 L 476.65 196.10 L 486.11 199.73 L 479.74 225.18 Z" fill="url(#SVGID_20_)"
              fill-rule="nonzero" group-id="3" node-id="435" stroke="none" target-height="29.079987"
              target-width="22.72998" target-x="463.38" target-y="196.1"></path>
        <path d="M 465.56 523.89 L 603.73 636.45 L 550.26 565.26 L 559.00 565.19 L 576.80 582.45 L 564.21 564.29 L 572.79 565.99 L 684.36 649.85 L 417.33 723.40 L 329.92 523.89 L 340.06 523.89 L 419.52 593.94 L 370.52 515.75 L 390.25 524.81 L 410.22 514.71 L 484.63 583.29 L 455.42 523.89 Z"
              fill="url(#SVGID_21_)" fill-rule="nonzero" group-id="3" node-id="437" stroke="none" target-height="208.69"
              target-width="354.43997" target-x="329.92" target-y="514.71"></path>
        <path d="M 458.31 252.58 C 485.46 260.77 509.26 273.18 527.84 287.76 C 529.84 257.15 507.06 226.74 471.91 216.14 C 437.58 205.78 402.63 217.70 386.80 243.07 C 408.87 242.07 433.40 245.06 458.31 252.58 Z"
              fill="url(#SVGID_22_)" fill-rule="nonzero" group-id="3" node-id="439" stroke="none"
              target-height="81.98001" target-width="143.04004" target-x="386.8" target-y="205.78"></path>
        <path d="M 497.45 195.82 C 499.40 189.36 494.85 182.26 487.29 179.98 C 479.73 177.70 472.02 181.09 470.07 187.55 C 468.12 194.01 472.67 201.11 480.23 203.39 C 487.79 205.68 495.50 202.28 497.45 195.82 Z"
              fill="url(#SVGID_23_)" fill-rule="nonzero" group-id="3" node-id="441" stroke="none"
              target-height="27.979996" target-width="31.279999" target-x="468.12" target-y="177.7"></path>
        <path d="M 334.99 528.60 C 332.19 528.60 329.92 526.49 329.92 523.89 L 329.92 506.25 L 305.60 506.25 C 303.71 506.25 301.98 505.28 301.11 503.72 C 300.24 502.17 300.36 500.29 301.44 498.85 L 330.83 459.47 C 332.09 457.78 334.39 457.04 336.51 457.66 C 338.62 458.28 340.06 460.10 340.06 462.16 L 340.06 496.83 L 351.45 496.83 C 354.25 496.83 356.52 498.94 356.52 501.54 C 356.52 504.14 354.25 506.25 351.45 506.25 L 340.06 506.25 L 340.06 523.89 C 340.06 526.49 337.79 528.60 334.99 528.60 Z M 315.29 496.82 L 329.93 496.82 L 329.93 477.21 L 315.29 496.82 Z"
              fill="url(#SVGID_24_)" fill-rule="nonzero" group-id="3,12" node-id="445" stroke="none"
              target-height="71.55997" target-width="56.28" target-x="300.24" target-y="457.04"></path>
        <path d="M 460.49 528.60 C 457.69 528.60 455.42 526.49 455.42 523.89 L 455.42 506.25 L 431.09 506.25 C 429.20 506.25 427.47 505.28 426.60 503.72 C 425.73 502.17 425.85 500.29 426.93 498.85 L 456.32 459.47 C 457.58 457.78 459.88 457.04 462.00 457.66 C 464.11 458.28 465.55 460.10 465.55 462.16 L 465.55 496.83 L 476.94 496.83 C 479.74 496.83 482.01 498.94 482.01 501.54 C 482.01 504.14 479.74 506.25 476.94 506.25 L 465.55 506.25 L 465.55 523.89 C 465.56 526.49 463.29 528.60 460.49 528.60 Z M 440.78 496.82 L 455.42 496.82 L 455.42 477.21 L 440.78 496.82 Z"
              fill="url(#SVGID_25_)" fill-rule="nonzero" group-id="3,13" node-id="450" stroke="none"
              target-height="71.55997" target-width="56.28" target-x="425.73" target-y="457.04"></path>
        <path d="M 390.25 530.13 C 379.05 530.13 369.93 521.65 369.93 511.23 L 369.93 474.82 C 369.93 464.40 379.05 455.92 390.25 455.92 C 401.45 455.92 410.57 464.40 410.57 474.82 L 410.57 511.23 C 410.57 521.65 401.45 530.13 390.25 530.13 Z M 390.25 465.34 C 384.63 465.34 380.07 469.59 380.07 474.81 L 380.07 511.22 C 380.07 516.44 384.64 520.69 390.25 520.69 C 395.87 520.69 400.43 516.44 400.43 511.22 L 400.43 474.81 C 400.43 469.59 395.86 465.34 390.25 465.34 Z"
              fill="url(#SVGID_26_)" fill-rule="nonzero" group-id="3,14" node-id="455" stroke="none"
              target-height="74.20999" target-width="40.640015" target-x="369.93" target-y="455.92"></path>
    </g>
    <g node-id="484">
        <path d="M 559.77 444.42 L 557.43 445.43 C 557.43 445.43 556.61 446.90 556.95 450.08 C 557.30 453.26 558.86 454.47 559.21 455.64 C 559.56 456.81 559.34 461.28 559.34 461.28 L 565.54 461.28 L 565.80 455.01 C 565.80 455.01 567.20 453.14 567.66 451.85 C 568.12 450.56 569.05 448.44 568.73 447.43 C 568.41 446.42 564.31 442.52 559.77 444.42 Z"
              fill="#ffbe92" fill-rule="nonzero" group-id="4" node-id="461" stroke="none" target-height="18.76001"
              target-width="12.440002" target-x="556.61" target-y="442.52"></path>
        <path d="M 562.66 441.17 C 562.66 441.17 563.66 439.25 564.45 440.28 C 565.24 441.31 565.74 441.84 566.65 441.62 C 567.56 441.39 569.35 441.60 568.71 443.37 C 568.07 445.14 568.68 445.30 568.93 445.78 C 569.08 446.08 570.18 447.08 569.44 448.36 C 568.71 449.62 567.68 449.16 567.86 450.36 C 568.04 451.56 567.62 452.62 566.95 452.99 C 566.30 453.35 566.46 454.00 566.58 454.37 C 566.70 454.73 566.33 455.92 565.23 455.50 C 564.13 455.08 563.15 454.92 562.29 455.33 C 561.42 455.75 557.84 455.99 558.60 454.29 C 559.30 452.74 558.33 452.42 557.68 451.73 C 557.03 451.04 556.50 449.84 556.85 448.66 C 557.05 447.98 557.33 446.35 556.55 445.33 C 555.75 444.27 557.13 441.40 558.04 441.50 C 558.96 441.63 560.21 438.87 562.66 441.17 Z"
              fill="#171c61" fill-rule="nonzero" group-id="4" node-id="463" stroke="none" target-height="17.119995"
              target-width="14.429993" target-x="555.75" target-y="438.87"></path>
        <path d="M 581.06 475.52 C 581.06 475.52 583.43 486.27 577.65 487.07 C 571.87 487.87 567.99 472.69 567.99 472.69 L 567.99 465.81 L 578.57 468.21 L 581.06 475.52 Z"
              fill="#ffbe92" fill-rule="nonzero" group-id="4" node-id="465" stroke="none" target-height="22.059998"
              target-width="15.440002" target-x="567.99" target-y="465.81"></path>
        <path d="M 565.55 553.80 C 565.55 553.80 561.29 553.21 561.80 557.12 C 563.06 560.51 563.89 561.60 564.11 563.25 C 564.33 564.90 566.18 567.29 569.42 567.20 C 572.66 567.12 573.68 564.24 572.03 560.71 C 570.38 557.19 569.50 553.86 565.55 553.80 Z"
              fill="#f8b62d" fill-rule="nonzero" group-id="4" node-id="467" stroke="none" target-height="14.079956"
              target-width="12.390015" target-x="561.29" target-y="553.21"></path>
        <path d="M 561.77 556.26 C 561.77 556.26 562.67 559.07 563.30 559.98 C 563.93 560.89 564.44 562.15 564.84 563.21 C 565.25 564.26 566.16 566.80 569.91 566.30 C 572.19 565.82 572.96 564.50 572.80 563.47 C 572.89 564.14 573.17 565.16 572.79 565.88 C 572.38 566.67 571.28 567.15 570.03 567.37 C 567.59 567.80 565.72 567.47 564.22 564.08 C 563.83 562.66 563.57 561.55 563.18 560.74 C 562.78 559.93 561.45 557.36 561.77 556.26 Z"
              fill="#e6e8e8" fill-rule="nonzero" group-id="4" node-id="469" stroke="none" target-height="11.539978"
              target-width="11.719971" target-x="561.45" target-y="556.26"></path>
        <path d="M 551.17 554.20 C 551.17 554.20 546.09 554.88 547.28 558.44 C 548.55 561.51 549.52 562.73 550.01 564.31 C 550.51 565.89 552.74 567.88 555.91 567.17 C 559.08 566.46 559.58 563.43 557.36 560.29 C 555.14 557.13 555.06 553.49 551.17 554.20 Z"
              fill="#f8b62d" fill-rule="nonzero" group-id="4" node-id="471" stroke="none" target-height="14.390015"
              target-width="13.48999" target-x="546.09" target-y="553.49"></path>
        <path d="M 547.26 556.53 C 547.26 556.53 546.85 558.09 548.88 561.19 C 549.53 562.09 550.13 563.17 550.71 564.12 C 551.29 565.07 552.62 567.39 556.23 566.18 C 558.39 565.26 558.92 563.81 558.58 562.84 C 558.78 563.48 559.23 564.25 558.99 565.04 C 558.73 565.90 557.72 566.76 556.53 567.22 C 554.21 568.12 552.31 568.16 550.25 565.11 C 549.62 563.79 549.17 562.75 548.65 562.03 C 548.13 561.31 546.51 557.65 547.26 556.53 Z"
              fill="#e6e8e8" fill-rule="nonzero" group-id="4" node-id="473" stroke="none" target-height="11.629944"
              target-width="12.719971" target-x="546.51" target-y="556.53"></path>
        <path d="M 550.66 497.26 C 550.66 497.26 548.06 503.93 548.75 515.53 C 549.44 527.12 552.64 564.17 552.64 564.17 L 557.60 564.17 L 561.42 513.21 L 567.27 564.17 L 571.87 564.17 C 571.87 564.17 576.17 502.24 571.32 497.27 C 562.97 497.26 550.66 497.26 550.66 497.26 Z"
              fill="url(#SVGID_27_)" fill-rule="nonzero" group-id="4" node-id="475" stroke="none"
              target-height="66.90997" target-width="28.109985" target-x="548.06" target-y="497.26"></path>
        <path d="M 559.88 450.07 C 559.88 450.07 557.84 451.49 556.44 451.01 C 555.04 450.53 553.61 450.87 552.60 451.02 C 551.58 451.16 543.72 452.64 543.21 453.17 C 542.48 453.92 551.45 459.03 551.08 459.65 C 549.03 460.35 545.35 465.04 545.35 465.04 C 545.35 465.04 531.89 452.37 535.87 449.55 C 539.85 446.73 548.19 446.33 553.31 446.10 C 554.82 446.22 555.63 445.51 556.09 445.02 C 556.55 444.52 559.79 442.00 562.77 443.99 C 564.57 445.19 560.83 446.82 560.21 446.91 C 559.59 447.00 557.20 448.10 559.31 449.07 C 560.16 449.32 560.45 449.73 559.88 450.07 Z"
              fill="#ffbe92" fill-rule="nonzero" group-id="4" node-id="477" stroke="none" target-height="23.040009"
              target-width="32.679993" target-x="531.89" target-y="442"></path>
        <path d="M 547.60 456.33 L 541.46 464.30 C 541.46 464.30 546.73 469.55 548.29 473.12 C 548.69 474.72 548.79 476.20 548.67 478.48 C 548.55 480.75 546.04 502.28 549.46 503.63 C 552.87 504.98 570.50 505.12 573.10 504.56 C 575.70 504.01 574.61 484.97 573.63 479.26 C 575.07 477.97 581.15 475.20 581.15 475.20 C 581.15 475.20 579.86 462.28 574.97 460.49 C 570.46 458.83 568.86 458.69 568.51 458.50 C 567.90 457.85 564.78 457.44 563.35 457.44 C 561.92 457.44 559.62 457.39 557.93 458.36 C 554.67 460.30 551.87 457.75 547.60 456.33 Z"
              fill="url(#SVGID_28_)" fill-rule="nonzero" group-id="4" node-id="479" stroke="none"
              target-height="48.79001" target-width="39.690002" target-x="541.46" target-y="456.33"></path>
    </g>
</svg>