<svg t="1712461584992" class="icon" viewBox="0 0 1026 1024" version="1.1" xmlns="http://www.w3.org/2000/svg" p-id="2808"
     data-spm-anchor-id="a313x.collections_detail.0.i24.35813a81Hn7Wtd" width="200" height="200">
    <path d="M775.284055 771.447765c-12.062387 55.7433-28.118603 107.399099-47.951501 152.906615-11.057543 25.389345-23.090125 48.34322-35.940207 68.840336 140.414189-51.519549 251.845438-163.508572 302.666705-304.250612-20.756843 12.930981-44.085406 25.023173-69.917563 36.106262-44.409 19.070749-94.668236 34.594738-148.857434 46.397399zM243.244654 676.549607c-6.459104-51.208729-9.856839-104.657067-9.856839-159.225211 0-153.025834 26.253681-297.57436 73.928423-407.025725 11.057543-25.389345 23.085867-48.351735 35.940208-68.840336C202.95296 92.939563 91.564289 204.809367 40.691928 345.406642c30.068682-18.598131 65.591624-35.437786 106.24949-50.199627l30.068682 82.827255C74.396783 415.290143 10.644535 468.661841 10.644535 517.324396c0 58.676934 90.427453 121.845862 232.600119 159.225211zM353.270824 787.606169c37.7072 146.460285 103.162574 236.398089 164.053572 236.398089 60.88674 0 126.342114-89.937804 164.05783-236.398089-52.660643 6.769924-107.778045 10.30391-164.05783 10.30391s-111.392929-3.546759-164.053572-10.30391zM517.324396 324.858432c-63.130608 0-124.413324 4.696369-182.668734 13.884731-8.387894 54.585175-13.14813 114.492617-13.14813 178.581233 0 63.990686 4.75172 123.81723 13.114067 178.338538 56.122246 8.97973 117.553986 14.123169 182.702797 14.123169 65.157327 0 126.584809-5.143439 182.702797-14.123169 8.362347-54.521308 13.114067-114.343594 13.114067-178.338538 0-13.735708-0.68125-34.151926-2.039492-60.695138l88.000499-4.470704c1.430625 28.020674 2.154454 49.944158 2.154453 65.165842 0 54.559628-3.401993 108.012225-9.856839 159.220953 142.176924-37.362318 232.604377-100.535503 232.604377-159.22521v-0.004258c-0.004258-90.848977-216.701442-192.457449-506.679862-192.457449zM680.896835 246.983014C644.083776 105.150974 580.216566 10.644535 517.324396 10.644535c-60.895255 0-126.363403 89.959093-164.066345 236.449183 52.95869-6.829534 107.871717-10.355004 164.066345-10.355004 56.117988 0.004258 111.052304 3.516954 163.572439 10.2443zM924.141489 309.589911c25.823642 11.091605 49.156462 23.175281 69.913305 36.106262-50.825525-140.750556-162.282321-252.752352-302.705025-304.267643 35.642161 56.645957 64.510139 131.809147 83.930028 221.763982 54.193456 11.806918 104.448434 27.330908 148.861692 46.397399zM259.36048 771.447765c-54.189198-11.798402-104.448434-27.318134-148.853176-46.388883-25.823642-11.091605-49.152204-23.175281-69.917564-36.106263 50.81701 140.733525 162.261032 252.722548 302.662448 304.242097-12.85434-20.488601-24.882665-43.450991-35.940207-68.840336-19.820124-45.524547-35.880598-97.167572-47.951501-152.906615z"
          fill="#04477e" p-id="2809"></path>
</svg>