<svg width="14" height="14" viewBox="0 0 14 14" fill="none" xmlns="http://www.w3.org/2000/svg">
    <g id="general/archive">
        <path id="Vector" fill-rule="evenodd" clip-rule="evenodd"
              d="M1.16675 2.625C1.16675 2.14175 1.5585 1.75 2.04175 1.75H11.9584C12.4417 1.75 12.8334 2.14175 12.8334 2.625V4.95833C12.8334 5.44158 12.4417 5.83333 11.9584 5.83333V11.375C11.9584 11.8582 11.5667 12.25 11.0834 12.25H2.91675C2.4335 12.25 2.04175 11.8582 2.04175 11.375L2.04175 5.83333C1.5585 5.83333 1.16675 5.44158 1.16675 4.95833V2.625ZM3.20841 5.83333H10.7917V11.0833H3.20841V5.83333ZM11.6667 4.66667H11.0834H2.91675H2.33341V2.91667H11.6667V4.66667ZM5.54175 8.45833H8.45841V7.29167H5.54175V8.45833Z"
              fill="#004898"/>
    </g>
</svg>
