<svg width="14" height="14" viewBox="0 0 14 14" fill="none" xmlns="http://www.w3.org/2000/svg">
    <g id="general/apps">
        <path id="Vector" fill-rule="evenodd" clip-rule="evenodd"
              d="M2.04159 1.45801C1.71942 1.45801 1.45825 1.71918 1.45825 2.04134V5.83301C1.45825 6.15517 1.71942 6.41634 2.04159 6.41634H5.83325C6.15542 6.41634 6.41659 6.15517 6.41659 5.83301V2.04134C6.41659 1.71918 6.15542 1.45801 5.83325 1.45801H2.04159ZM2.62492 5.24967V2.62467H5.24992V5.24967H2.62492ZM8.16659 1.45801C7.84442 1.45801 7.58325 1.71918 7.58325 2.04134V5.83301C7.58325 6.15517 7.84442 6.41634 8.16659 6.41634H11.9583C12.2804 6.41634 12.5416 6.15517 12.5416 5.83301V2.04134C12.5416 1.71918 12.2804 1.45801 11.9583 1.45801H8.16659ZM8.74992 5.24967V2.62467H11.3749V5.24967H8.74992ZM1.45825 8.16634C1.45825 7.84418 1.71942 7.58301 2.04159 7.58301H5.83325C6.15542 7.58301 6.41659 7.84418 6.41659 8.16634V11.958C6.41659 12.2802 6.15542 12.5413 5.83325 12.5413H2.04159C1.71942 12.5413 1.45825 12.2802 1.45825 11.958V8.16634ZM2.62492 8.74967V11.3747H5.24992V8.74967H2.62492ZM8.16659 7.58301C7.84442 7.58301 7.58325 7.84418 7.58325 8.16634V11.958C7.58325 12.2802 7.84442 12.5413 8.16659 12.5413H11.9583C12.2804 12.5413 12.5416 12.2802 12.5416 11.958V8.16634C12.5416 7.84418 12.2804 7.58301 11.9583 7.58301H8.16659ZM8.74992 11.3747V8.74967H11.3749V11.3747H8.74992Z"
              fill="#004898"/>
    </g>
</svg>
