<svg width="14" height="14" viewBox="0 0 14 14" fill="none" xmlns="http://www.w3.org/2000/svg">
<g id="Group 427320377">
<g id="Frame" clip-path="url(#clip0_2239_4952)">
<path id="Vector" d="M10.5 3H3.5C3.22386 3 3 3.22386 3 3.5V10.5C3 10.7761 3.22386 11 3.5 11H10.5C10.7761 11 11 10.7761 11 10.5V3.5C11 3.22386 10.7761 3 10.5 3Z" stroke="#4E5969"/>
<path id="Vector_2" d="M8.5 5.5H5.5V8.5H8.5V5.5Z" stroke="#4E5969"/>
<path id="Vector_3" d="M4.72729 1.5V3" stroke="#4E5969" stroke-linecap="square"/>
<path id="Vector_4" d="M4.72729 11V12.5" stroke="#4E5969" stroke-linecap="square"/>
<path id="Vector_5" d="M7 1.5V3" stroke="#4E5969" stroke-linecap="square"/>
<path id="Vector_6" d="M7 11V12.5" stroke="#4E5969" stroke-linecap="square"/>
<path id="Vector_7" d="M9.27271 1.5V3" stroke="#4E5969" stroke-linecap="square"/>
<path id="Vector_8" d="M9.27271 11V12.5" stroke="#4E5969" stroke-linecap="square"/>
<path id="Vector_9" d="M1.5 4.72754H3" stroke="#4E5969" stroke-linecap="square"/>
<path id="Vector_10" d="M11 4.72754H12.5" stroke="#4E5969" stroke-linecap="square"/>
<path id="Vector_11" d="M1.5 7H3" stroke="#4E5969" stroke-linecap="square"/>
<path id="Vector_12" d="M11 7H12.5" stroke="#4E5969" stroke-linecap="square"/>
<path id="Vector_13" d="M1.5 9.27246H3" stroke="#4E5969" stroke-linecap="square"/>
<path id="Vector_14" d="M11 9.27246H12.5" stroke="#4E5969" stroke-linecap="square"/>
</g>
</g>
<defs>
<clipPath id="clip0_2239_4952">
<rect width="12" height="12" fill="white" transform="translate(1 1)"/>
</clipPath>
</defs>
</svg>
